<svg width="40" height="41" viewBox="0 0 40 41" fill="none" xmlns="http://www.w3.org/2000/svg">
<path fill-rule="evenodd" clip-rule="evenodd" d="M17.902 0.814693C11.1442 1.55548 5.23684 5.62143 2.1781 11.6371C1.07326 13.8101 0.458221 15.7944 0.123995 18.2645C-0.0401059 19.4774 -0.0415952 22.0655 0.121152 23.247C0.686974 27.3546 2.20111 30.7526 4.86342 33.8897C5.61595 34.7765 7.21357 36.3698 7.41409 36.4335C7.49641 36.4597 7.90206 36.7309 8.31556 37.0363C10.8767 38.9276 14.0112 40.1691 17.4282 40.6453C18.4892 40.7932 21.2488 40.8134 22.3024 40.6809C27.9324 39.9731 32.7713 37.151 36.1312 32.6156C37.3941 30.9109 38.5552 28.5939 39.1482 26.5952C41.0467 20.1961 39.7327 13.3901 35.5964 8.19793C34.9486 7.38474 33.2963 5.74176 32.4658 5.08502C30.1928 3.28741 27.7058 2.04641 24.9821 1.35063C23.2615 0.911021 22.3317 0.797001 20.2715 0.772732C19.2848 0.761073 18.2185 0.779986 17.902 0.814693ZM22.7425 1.28331C24.3647 1.52471 26.1007 2.00072 27.4969 2.58695C27.766 2.69996 27.9699 2.81886 27.95 2.85119C27.9112 2.91396 28.1119 3.01232 28.4075 3.0753C28.5073 3.09659 28.6306 3.15577 28.6816 3.20681C28.8088 3.33418 29.1096 3.48339 29.5123 3.61883C29.8754 3.74098 31.7674 4.95968 31.6531 4.99778C31.6154 5.01039 31.524 4.98822 31.4499 4.9485C31.3758 4.90877 31.2434 4.8763 31.1558 4.8763C31.068 4.8763 30.8299 4.83407 30.6266 4.78241C30.0584 4.63809 29.2302 4.59796 29.1372 4.71022C29.0751 4.78513 29.1283 4.8119 29.4219 4.85373L29.7831 4.90518L29.3907 4.94992C29.1415 4.97832 28.9678 5.03628 28.9149 5.10875C28.821 5.23728 28.5083 5.31794 27.8342 5.38749C27.553 5.41658 27.3166 5.48213 27.2249 5.55649L27.0752 5.67804L27.2306 5.88872C27.316 6.00457 27.3676 6.12924 27.3451 6.16571C27.3225 6.20224 27.3534 6.23207 27.4137 6.23207C27.4739 6.23207 27.504 6.26319 27.4805 6.30128C27.3614 6.49421 28.313 6.65053 28.7029 6.50207C28.8687 6.43896 28.9076 6.45991 29.1643 6.75099C29.3185 6.92582 29.4975 7.15508 29.5621 7.26056C29.6829 7.45775 29.9668 7.52561 30.0573 7.37898C30.0822 7.33865 30.1753 7.32401 30.2644 7.34638C30.4585 7.39518 30.7647 7.32801 30.7647 7.23669C30.7647 7.20083 30.7151 7.12173 30.6544 7.06092C30.5524 6.95883 30.5614 6.94439 30.7728 6.8705C31.0415 6.77668 31.0383 6.66815 30.7601 6.4475C30.5032 6.24373 30.5016 6.09649 30.7563 6.09649C31.1438 6.09649 31.374 6.01752 31.374 5.88465C31.374 5.72183 31.4714 5.72623 31.8479 5.90608L32.1525 6.05162L31.7576 6.11649C31.3976 6.1756 31.3667 6.19411 31.4081 6.32535C31.433 6.40452 31.4525 6.52492 31.4514 6.59284C31.45 6.67635 31.5634 6.7695 31.801 6.88033C31.9943 6.97042 32.1982 7.04811 32.2541 7.05292C32.3099 7.05766 32.2667 7.08085 32.1581 7.10437C31.8744 7.16592 31.8703 7.2912 32.149 7.38332C32.2813 7.42704 32.3895 7.4909 32.3895 7.52534C32.3895 7.61319 32.3414 7.60384 32.1507 7.4787C31.9377 7.33892 31.7958 7.39484 31.7681 7.62946C31.7415 7.8556 31.4454 7.98454 31.215 7.87031C31.1349 7.83052 30.8298 7.78503 30.5369 7.7691C30.208 7.75121 29.9842 7.70735 29.9515 7.6542C29.9153 7.59563 29.8137 7.58187 29.6323 7.61095C29.4499 7.6401 29.3252 7.62295 29.2361 7.55625C29.1096 7.46162 29.1098 7.45992 29.2463 7.49422C29.4378 7.54242 29.5853 7.36576 29.4484 7.25208C29.3937 7.2066 29.3108 7.19304 29.2643 7.22185C29.2177 7.25073 29.1021 7.2811 29.0074 7.28937C28.837 7.30428 28.8368 7.30367 28.9876 7.23242C29.1612 7.1504 29.1897 7.04553 29.0384 7.04553C28.9813 7.04553 28.9369 6.98493 28.9369 6.9069C28.9369 6.78373 28.9086 6.77336 28.683 6.8141C28.5434 6.83932 28.4063 6.87301 28.3784 6.88894C28.2875 6.94087 28.3247 7.12213 28.462 7.29703C28.536 7.39118 28.5799 7.4951 28.5596 7.52805C28.5393 7.56093 28.3407 7.58784 28.1183 7.58784C27.6458 7.58784 27.2469 7.73324 27.1972 7.92366C27.1603 8.06493 27.0974 8.09496 26.6859 8.16797C26.5457 8.19285 26.432 8.2525 26.432 8.30117C26.432 8.42069 25.9368 8.49871 25.7646 8.40638C25.5756 8.30511 25.552 8.31311 25.552 8.47831C25.552 8.61137 25.5268 8.61964 25.2407 8.5804C24.8809 8.53098 24.5874 8.58663 24.6227 8.69747C24.6361 8.73963 24.8113 8.82931 25.0121 8.89683C25.4148 9.0322 25.8965 9.47344 25.9395 9.74636C25.9785 9.9946 25.7337 10.1658 25.392 10.129C25.238 10.1124 24.8027 10.0646 24.4247 10.0229C23.8785 9.9624 23.6875 9.96491 23.4939 10.035C23.2517 10.1227 23.1816 10.2489 23.3255 10.3379C23.4172 10.3947 23.3501 10.9939 23.2302 11.1903C23.1625 11.3009 23.1689 11.3352 23.2671 11.3911C23.3486 11.4375 23.3856 11.5421 23.3856 11.7263V11.9941H23.7453C24.0514 11.9941 24.1322 12.0226 24.2877 12.185C24.5778 12.4883 24.4575 12.7076 23.7258 13.2095C23.1129 13.6297 22.9794 13.812 22.9794 14.2279C22.9794 14.4593 22.6311 14.8016 22.1848 15.0086C21.7271 15.221 21.5328 15.4463 21.1828 16.1702C21.0187 16.5097 20.8379 16.8261 20.7811 16.8734C20.6356 16.9942 20.6513 17.3979 20.8242 17.9865C20.9565 18.4366 20.9619 18.5164 20.8809 18.8064C20.8315 18.9831 20.7157 19.2173 20.6237 19.3269L20.4562 19.5261L20.6347 19.8792C20.7328 20.0734 20.8131 20.3073 20.8131 20.399C20.8131 20.5195 20.9777 20.726 21.4069 21.1438C21.7334 21.4616 22.0823 21.8653 22.182 22.0409C22.3192 22.2822 22.4508 22.4043 22.7222 22.542C22.9195 22.6421 23.2118 22.8569 23.3719 23.0194C23.7049 23.3575 23.9143 23.3918 24.5299 23.2087C24.9524 23.0831 25.311 23.0708 25.5733 23.1728C25.831 23.2731 26.0275 23.2661 26.1559 23.152C26.3063 23.0184 27.3791 22.6506 27.7701 22.5987C28.1572 22.5472 28.2396 22.6149 28.2717 23.0106L28.2937 23.2808L28.8353 23.2575C29.308 23.2371 29.4004 23.2527 29.5617 23.38C29.7375 23.5187 29.7443 23.5458 29.7037 23.9456C29.6784 24.1942 29.61 24.4314 29.5359 24.5271C29.2865 24.8493 29.4251 25.3102 29.9509 25.9074C30.2406 26.2364 30.3747 26.6345 30.6167 27.8839C30.7035 28.3318 30.6456 28.5274 30.2363 29.1703C29.8543 29.7703 29.8659 30.4266 30.27 31.0854C30.5016 31.4628 30.5144 31.5152 30.5209 32.1052C30.5269 32.6457 30.548 32.7522 30.6823 32.9187C30.9822 33.2903 31.1321 33.6961 31.1173 34.0962L31.1034 34.4721L31.3472 34.4886C31.5227 34.5004 31.681 34.4472 31.9115 34.299C32.0878 34.1858 32.2963 34.0931 32.3748 34.0931C32.4533 34.0931 32.7247 33.9886 32.9781 33.8609C33.3396 33.6786 33.5659 33.4904 34.0291 32.987C34.6506 32.3114 34.9268 31.9153 34.8756 31.7725C34.8257 31.6327 34.9508 31.4582 35.2253 31.2846C35.5205 31.098 35.6843 30.6706 35.6179 30.2605C35.5846 30.0558 35.6179 29.969 35.8467 29.6626C35.9939 29.4655 36.247 29.2047 36.409 29.0832C36.7564 28.8225 36.9746 28.4579 36.9806 28.1281C36.983 27.9978 37.0226 27.7015 37.0686 27.4696C37.1331 27.1443 37.1341 27.0078 37.0726 26.8728C37.0288 26.7766 36.993 26.4543 36.993 26.1567C36.993 25.6947 37.0215 25.559 37.1887 25.2278C37.2963 25.0145 37.4487 24.7818 37.5275 24.7106C37.6061 24.6394 37.7037 24.4579 37.7442 24.3071C37.7848 24.1563 37.9401 23.8943 38.0895 23.7247C38.2388 23.5552 38.4347 23.2712 38.5248 23.0935C38.7866 22.5775 39.0807 21.6246 39.1314 21.1286C39.1831 20.6208 39.1381 20.5712 38.8393 20.8066C38.7446 20.8811 38.597 20.9421 38.511 20.9421C38.4252 20.9421 38.3361 20.9727 38.3131 21.0099C38.244 21.1219 38.17 21.0876 38.087 20.9051C37.9838 20.6782 37.9869 20.4589 38.0931 20.4727C38.2725 20.496 38.3394 20.4627 38.3817 20.3292C38.4117 20.2345 38.4637 20.2029 38.5466 20.2293C38.6279 20.2551 38.704 20.212 38.7787 20.0979C38.8398 20.0046 38.9834 19.8797 39.0977 19.8205C39.228 19.7531 39.2919 19.6769 39.2689 19.6168C39.2259 19.5045 39.4646 19.3544 39.5762 19.4236C39.705 19.5032 39.6018 22.4952 39.4317 23.6135C39.2165 25.0288 38.4349 27.9263 38.4196 27.3651C38.4123 27.0927 38.3347 27.1395 38.1438 27.5317C38.0508 27.723 37.8429 28.0262 37.6819 28.2055C37.4335 28.4823 37.3805 28.5936 37.3313 28.9426C37.2994 29.1687 37.1953 29.4868 37.1001 29.6495C36.9756 29.8623 36.9194 30.0707 36.8998 30.3923C36.874 30.8179 36.8484 30.8755 36.3634 31.6019C34.4009 34.5402 31.7744 36.8494 28.6322 38.3989C26.8031 39.3009 25.1996 39.8224 23.2164 40.1603C20.7514 40.5802 18.1735 40.5088 15.6865 39.9515C13.066 39.3644 10.4244 38.1396 8.21449 36.4872C7.6096 36.0349 7.46879 35.8377 7.66897 35.7235C7.76639 35.6679 7.75001 35.6316 7.5442 35.4476C7.41145 35.3289 7.38085 35.2826 7.47468 35.3423C7.73173 35.5059 7.8827 35.48 7.8827 35.2721C7.8827 35.1288 7.90504 35.1054 8.00117 35.1486C8.21665 35.2453 8.76217 35.2626 8.86629 35.1761C8.99667 35.0678 8.99363 34.8106 8.8606 34.7001C8.80272 34.652 8.72676 34.5591 8.69176 34.4937C8.63151 34.3809 8.64633 34.3811 8.97413 34.4966C9.39724 34.6458 9.5604 34.6101 9.70263 34.337C9.76288 34.2215 10.0165 33.9187 10.2664 33.6642L10.7205 33.2015L10.6556 32.8585C10.6199 32.6698 10.5906 32.5073 10.5906 32.4974C10.5906 32.4875 10.682 32.4475 10.7937 32.4086C10.9054 32.3696 10.9968 32.3082 10.9968 32.2723C10.9968 32.2364 11.1169 32.1866 11.2637 32.1618C11.4105 32.1369 11.5666 32.0733 11.6105 32.0203C11.6616 31.9585 11.8229 31.9239 12.0589 31.9239C12.4634 31.9239 12.6893 31.8378 12.6893 31.6836C12.6893 31.6287 12.7807 31.4574 12.8924 31.303C13.0041 31.1486 13.0965 30.9582 13.0978 30.8799C13.0992 30.8016 13.1438 30.6613 13.197 30.5681C13.3085 30.3728 13.3317 29.5797 13.2336 29.3211C13.1769 29.1719 13.1953 29.1309 13.3768 29.0014C13.6639 28.7967 14.3616 27.8385 14.4466 27.5321C14.5474 27.1686 14.533 26.757 14.4136 26.5863C14.3527 26.4992 14.2067 26.4216 14.0582 26.3975C13.6925 26.3381 13.5401 26.2639 13.2514 26.0045C12.9438 25.7281 12.7618 25.6635 12.3334 25.6785C12.1346 25.6855 11.9478 25.6482 11.8453 25.5809C11.7331 25.5073 11.6126 25.4867 11.4735 25.5173C11.3 25.5554 11.2676 25.5421 11.2676 25.4327C11.2676 25.2664 10.5937 24.9145 10.2752 24.9145C10.132 24.9145 10.049 24.8814 10.049 24.8243C10.049 24.7746 9.9957 24.717 9.93057 24.6961C9.86538 24.6753 9.74562 24.6264 9.66431 24.5875C9.43969 24.4802 9.30436 24.5666 9.30436 24.8175C9.30436 24.985 9.28568 25.0179 9.22495 24.9571C9.13247 24.8645 9.21012 24.6523 9.48173 24.255L9.64989 24.009L9.47713 23.7541C9.38208 23.6139 9.30436 23.46 9.30436 23.4122C9.30436 23.2802 8.97514 22.9163 8.75052 22.8C8.64098 22.7433 8.30561 22.6536 8.0053 22.6007C7.47772 22.5079 7.44706 22.4919 7.09706 22.1301C6.89782 21.9241 6.67651 21.7556 6.6053 21.7556C6.5271 21.7556 6.46042 21.6947 6.4372 21.602C6.41425 21.5104 6.31169 21.4155 6.18293 21.3668C5.99953 21.2976 5.98003 21.2697 6.05308 21.1815C6.12748 21.0918 6.10792 21.0777 5.90895 21.0777C5.78236 21.0777 5.60681 21.1282 5.51894 21.1898C5.39262 21.2784 5.33284 21.2856 5.234 21.2237C5.16522 21.1807 5.01615 21.1455 4.90275 21.1455C4.78198 21.1455 4.6805 21.1034 4.65768 21.0438C4.63622 20.9879 4.57529 20.9421 4.52229 20.9421C4.46921 20.9421 4.40828 20.8964 4.38689 20.8405C4.36543 20.7845 4.29022 20.7388 4.21974 20.7388C4.07629 20.7388 4.04528 20.8476 4.17621 20.8914C4.22279 20.907 4.17682 20.9358 4.07406 20.9556C3.93101 20.983 3.90359 20.9718 3.9568 20.9076C4.0289 20.8205 3.9809 20.6032 3.88951 20.6032C3.86087 20.6032 3.79846 20.6501 3.75093 20.7075C3.70341 20.7649 3.51683 20.8754 3.33642 20.9531C3.13704 21.039 3.00821 21.1376 3.00794 21.2047C3.00774 21.2654 2.9483 21.4049 2.876 21.5148L2.74446 21.7146L2.675 21.5318C2.59986 21.3338 2.35824 21.2814 2.20917 21.4306C2.14553 21.4944 2.08271 21.4609 1.92328 21.2781L1.71897 21.0438L1.76006 20.3619C1.80819 19.5628 1.7625 19.477 1.32842 19.5504L1.06534 19.5949L1.11584 19.3026C1.1436 19.1418 1.21522 18.8333 1.275 18.6171C1.4173 18.1022 1.41615 18.095 1.18882 18.095C0.961084 18.095 0.89799 18.1644 0.777554 18.5471C0.686568 18.8363 0.435475 19.0103 0.436287 18.7835C0.436964 18.5919 0.632138 17.343 0.750475 16.7732C0.873618 16.18 0.956075 16.0128 1.0694 16.1263C1.18205 16.2391 1.2287 16.2102 1.27026 16.0021C1.31264 15.7899 1.58337 15.6794 1.72323 15.8173C1.77854 15.8718 1.82295 15.8594 1.88794 15.7713C1.96789 15.663 1.98116 15.6618 2.0188 15.7599C2.04182 15.82 2.06064 15.9891 2.06064 16.1358C2.06064 16.5124 2.20775 16.9503 2.32656 16.9274C2.48091 16.8976 2.53345 16.5535 2.46548 16.0169C2.37253 15.2828 2.41795 15.1568 2.9835 14.5793C3.25525 14.3019 3.46288 14.0511 3.445 14.0221C3.42706 13.9931 3.44338 13.9502 3.48122 13.9267C3.51907 13.9033 3.55014 13.8173 3.55027 13.7356C3.55054 13.587 3.73793 13.1817 4.00846 12.7446C4.08753 12.6167 4.13735 12.4879 4.11914 12.4584C4.10093 12.4289 4.16349 12.3854 4.25806 12.3616C4.3527 12.3378 4.43008 12.2894 4.43008 12.2541C4.43008 12.2187 4.56717 12.1291 4.73472 12.0549C5.04106 11.9192 5.11153 11.8283 4.95474 11.7712C4.80479 11.7166 4.99184 11.5001 5.4 11.2559C5.61121 11.1294 5.78405 10.9846 5.78405 10.9339C5.78405 10.8832 5.82446 10.8417 5.87388 10.8417C5.93515 10.8417 5.95424 10.9063 5.93386 11.045C5.90929 11.2129 5.92764 11.2484 6.03886 11.2484C6.11299 11.2484 6.21549 11.1977 6.2666 11.1357C6.37221 11.0076 7.2441 10.4349 7.33353 10.4349C7.44083 10.4349 7.54718 10.2504 7.50426 10.1385C7.44144 9.97446 7.28106 10.005 7.19339 10.1977C7.11317 10.3739 7.0301 10.4158 6.99131 10.2995C6.97892 10.2624 6.83933 10.2268 6.68105 10.2206C6.38067 10.2089 6.31176 10.1126 6.49488 9.96043C6.55073 9.914 6.59643 9.83001 6.59643 9.77374C6.59643 9.69348 6.538 9.67924 6.32563 9.70778C6.1767 9.72778 6.05484 9.71734 6.05484 9.6846C6.05484 9.57045 6.4412 9.42626 7.04148 9.31624C7.4562 9.24031 7.73071 9.14758 7.91654 9.02068C8.06548 8.919 8.27352 8.79861 8.37886 8.75312C8.56949 8.67083 8.56922 8.67191 8.31461 8.9935C8.17393 9.1711 8.02682 9.34756 7.9877 9.38559C7.88012 9.49012 7.73389 9.76622 7.76801 9.80038C7.78453 9.81699 7.98607 9.80025 8.21577 9.76317C8.44547 9.72615 8.67815 9.713 8.73278 9.73402C8.78748 9.75503 8.87427 9.73727 8.92572 9.6945C8.99748 9.63484 9.04487 9.6425 9.1297 9.72744C9.19042 9.78825 9.28574 9.82052 9.34146 9.7991C9.491 9.74161 9.54422 9.5457 9.4338 9.45914C9.38127 9.41792 9.33516 9.34613 9.33144 9.29949C9.30856 9.01343 9.30186 9.00306 9.16747 9.04576C9.09213 9.06969 8.93771 9.06888 8.82424 9.04393C8.62352 8.9998 8.62122 8.99492 8.73921 8.86443C8.89147 8.69597 8.92207 8.27325 8.79439 8.10194C8.72595 8.01009 8.58804 7.96291 8.32395 7.94102C8.11849 7.92393 7.95039 7.88326 7.95039 7.85059C7.95039 7.81791 7.89041 7.7912 7.8171 7.7912C7.72198 7.7912 7.69592 7.75975 7.72604 7.68111C7.75143 7.61489 7.7236 7.54608 7.65618 7.50832C7.59464 7.47375 7.5442 7.40644 7.5442 7.35865C7.5442 7.31092 7.46994 7.23202 7.37916 7.18334C7.22521 7.10085 7.18797 7.11834 6.82193 7.44501C6.39414 7.82672 6.2121 7.86563 6.24358 7.56845C6.26227 7.39173 6.25056 7.38447 5.94537 7.38447C5.63193 7.38447 5.62929 7.38264 5.7502 7.2489C5.82074 7.17087 5.96162 7.1121 6.08226 7.11047C6.42522 7.10573 6.97107 6.95239 7.09746 6.82522C7.16232 6.75994 7.2552 6.70659 7.30381 6.70659C7.43189 6.70659 7.55287 6.53698 7.50812 6.42018C7.48341 6.35578 7.4105 6.33131 7.30387 6.35172C7.20795 6.37009 7.13801 6.35151 7.13801 6.30779C7.13801 6.26332 7.26298 6.23207 7.44069 6.23207C7.67188 6.23207 7.81574 6.18096 8.04998 6.01562C8.21861 5.89665 8.35658 5.77429 8.35658 5.74386C8.35658 5.71342 8.24238 5.70576 8.10271 5.72691C7.96312 5.74806 7.7477 5.77653 7.62402 5.79009C7.40786 5.81388 7.40285 5.80921 7.49336 5.6676C7.61671 5.47447 8.98618 4.43785 9.35466 4.25868C9.70764 4.08704 10.0257 4.153 9.99908 4.39229C9.98825 4.48964 10.0205 4.53736 10.0972 4.53736C10.1861 4.53736 10.1934 4.55546 10.1303 4.61871C10.0856 4.66345 10.049 4.7435 10.049 4.79665C10.049 4.8923 10.2062 4.88573 10.5568 4.77537C10.6312 4.75191 10.5834 4.79346 10.4504 4.86769C10.3174 4.94192 10.1722 5.04665 10.1276 5.10034C10.0302 5.21802 10.0932 5.41861 10.2276 5.41861C10.2807 5.41861 10.3416 5.46437 10.363 5.52029C10.3845 5.57622 10.4278 5.62197 10.4594 5.62197C10.491 5.62197 10.5908 5.69614 10.6813 5.78677C10.9021 6.00783 11.3365 6.12124 11.6405 6.03718C11.7825 5.99793 11.891 5.99678 11.9142 6.03433C11.9353 6.0685 12.1021 6.09649 12.2848 6.09649C12.5617 6.09649 12.6511 6.06307 12.8224 5.89543C12.9353 5.7848 13.0278 5.64814 13.0278 5.59174C13.0278 5.53534 13.1475 5.42803 13.2937 5.35333C13.4654 5.26561 13.5674 5.16298 13.5814 5.0638C13.6046 4.89996 13.7385 4.85129 14.7541 4.63755C15.0147 4.58264 15.2965 4.52184 15.3803 4.50238C15.4849 4.47805 15.5326 4.41717 15.5326 4.30803C15.5326 4.18323 15.595 4.12521 15.8226 4.03817C15.9821 3.97716 16.203 3.92618 16.3134 3.92489C16.8028 3.91899 18.5127 3.58826 18.7981 3.44427C18.8628 3.41167 18.9618 3.38496 19.0181 3.38496C19.163 3.38496 19.1453 3.26741 18.9877 3.18295C18.799 3.08181 18.8876 2.92223 19.161 2.87085C19.2877 2.84706 19.3914 2.80042 19.3914 2.76734C19.3914 2.73419 19.4657 2.70707 19.5567 2.70707C19.6476 2.70707 19.7407 2.67657 19.7637 2.63929C19.7868 2.602 19.918 2.57102 20.0555 2.57048C20.2417 2.56967 20.2795 2.55272 20.2038 2.50371C20.0704 2.41735 19.7976 2.41735 19.7976 2.50371C19.7976 2.54099 19.7671 2.5715 19.7299 2.5715C19.6927 2.5715 19.6622 2.52832 19.6622 2.47544C19.6622 2.42263 19.6242 2.36406 19.5776 2.34522C19.5311 2.32644 19.6206 2.30861 19.7767 2.3057C20.1037 2.29953 20.2171 2.19127 19.9881 2.10369C19.8351 2.04519 19.8362 2.04282 20.0345 2.00065C20.1462 1.97693 20.329 1.92697 20.4407 1.88961C20.5524 1.85226 20.8875 1.80332 21.1854 1.78081C21.4833 1.75831 21.7723 1.71587 21.8276 1.68645C22.0252 1.58152 21.5909 1.54545 20.39 1.56714C19.383 1.58524 19.2115 1.57413 19.2773 1.49488C19.3432 1.4155 19.1153 1.40581 17.7824 1.43109C16.9173 1.44757 16.2096 1.45523 16.2096 1.44811C16.2096 1.42011 17.7024 1.20834 18.3082 1.15038C19.3397 1.05175 21.6523 1.1211 22.7425 1.28331ZM16.0911 1.53176C16.0446 1.5506 15.9684 1.5506 15.9219 1.53176C15.8754 1.51298 15.9134 1.49759 16.0065 1.49759C16.0996 1.49759 16.1377 1.51298 16.0911 1.53176ZM19.5085 2.00235C19.486 2.02485 19.4276 2.02729 19.3787 2.0077C19.3247 1.98608 19.3408 1.97001 19.4196 1.96676C19.491 1.96384 19.5309 1.97984 19.5085 2.00235ZM18.3082 3.31717C18.3836 3.36598 18.3434 3.38313 18.1519 3.38394C17.997 3.38455 17.9108 3.35791 17.9359 3.31717C17.9888 3.23148 18.1758 3.23148 18.3082 3.31717ZM18.5621 4.10928C18.3384 4.14575 18.3136 4.26424 18.5283 4.27095C18.6682 4.27536 18.6699 4.2799 18.5496 4.32708C18.3762 4.39507 18.5283 4.49479 18.715 4.43547C18.7921 4.411 18.8498 4.42361 18.8498 4.46503C18.8498 4.50482 18.8118 4.54 18.7652 4.54319C18.5684 4.55675 19.1328 4.67829 19.6961 4.74364C20.3045 4.81428 20.9367 4.7614 21.4731 4.59505C21.7275 4.51621 21.7618 4.36457 21.5408 4.29556C21.457 4.26933 21.3687 4.21706 21.3445 4.17923C21.3179 4.13775 20.9829 4.1166 20.4983 4.12568C19.3082 4.14819 19.1036 4.14629 18.9175 4.11097C18.8244 4.09335 18.6645 4.0926 18.5621 4.10928ZM10.8558 4.42632C10.8403 4.43988 10.692 4.46828 10.5265 4.4895C10.3316 4.51445 10.2599 4.50611 10.3234 4.46598C10.4138 4.40863 10.9193 4.37108 10.8558 4.42632ZM23.6566 6.04565C23.6567 6.09229 23.7459 6.19018 23.8549 6.26325C23.9638 6.3364 24.0381 6.42025 24.0199 6.44967C24.0018 6.47916 24.0192 6.50322 24.0586 6.50322C24.098 6.50322 24.1303 6.56755 24.1303 6.64612C24.1303 6.76726 24.158 6.7821 24.3114 6.7436C24.4747 6.70252 24.4833 6.7091 24.3985 6.81132C24.3176 6.909 24.3205 6.93626 24.4195 7.00872C24.4827 7.05495 24.5145 7.11271 24.4903 7.13698C24.4661 7.16125 24.4944 7.18111 24.5534 7.18111C24.6124 7.18111 24.6784 7.14301 24.7001 7.09637C24.7317 7.02858 24.7475 7.02858 24.779 7.09637C24.8008 7.14301 24.8788 7.18111 24.9523 7.18111C25.0259 7.18111 25.0672 7.21161 25.0442 7.2489C25.0212 7.28618 24.9128 7.31668 24.8033 7.31668C24.595 7.31668 24.5543 7.37519 24.6768 7.49788C24.7286 7.54974 24.6979 7.58357 24.5705 7.61563C24.3836 7.66261 24.3695 7.83913 24.5553 7.80632C24.7589 7.77046 24.7426 7.92176 24.5309 8.03138C24.2394 8.18227 24.3636 8.27555 24.7396 8.18797C24.9071 8.14892 25.3527 8.13177 25.7297 8.14974C26.4086 8.18214 26.7019 8.12743 26.511 8.00399C26.4382 7.95695 26.4414 7.93769 26.5279 7.90448C26.7195 7.83086 26.6558 7.60316 26.4297 7.55347C26.3167 7.52859 26.1734 7.4305 26.1113 7.33546C26.0491 7.24035 25.8988 7.12105 25.7775 7.07027C25.6561 7.0195 25.5242 6.91694 25.4843 6.8423C25.4398 6.75892 25.3409 6.70571 25.228 6.70435L25.0442 6.70205L25.1965 6.57481C25.4647 6.35084 25.3955 6.23261 24.9934 6.2278C24.7049 6.22427 24.6675 6.2116 24.7947 6.16055C24.8809 6.12598 24.9324 6.06687 24.9092 6.02925C24.8425 5.92119 24.2939 5.94688 24.198 6.0626C24.1516 6.11852 24.0727 6.16428 24.0226 6.16428C23.9694 6.16428 23.9476 6.12198 23.9704 6.0626C23.9989 5.98823 23.9619 5.96092 23.8329 5.96092C23.7358 5.96092 23.6565 5.99908 23.6566 6.04565ZM23.2747 6.87606C23.2533 6.93198 23.1646 6.97774 23.0777 6.97774C22.8691 6.97774 22.7933 7.1119 22.9408 7.21988C23.0507 7.30035 23.0492 7.31079 22.9173 7.38149C22.5716 7.56675 22.8769 7.86692 23.3022 7.76009C23.404 7.73453 23.6242 7.69284 23.7918 7.66742C24.0775 7.62417 24.0952 7.60926 24.0759 7.42826C24.0625 7.30306 24.0979 7.20409 24.1765 7.14654C24.2926 7.06153 24.2924 7.05183 24.1697 6.91605C24.0086 6.73791 23.3391 6.70794 23.2747 6.87606ZM31.013 7.15853C30.9351 7.23649 30.9636 7.31668 31.0694 7.31668C31.1252 7.31668 31.1709 7.27093 31.1709 7.215C31.1709 7.10912 31.0908 7.08051 31.013 7.15853ZM33.0645 7.24625C33.2296 7.35085 33.1145 7.37146 32.8972 7.27621C32.7433 7.20877 32.7269 7.18673 32.8295 7.18517C32.904 7.18409 33.0097 7.21154 33.0645 7.24625ZM4.70087 8.64195C4.70087 8.75502 4.47551 9.08474 4.28121 9.25597C4.12063 9.39745 4.05348 9.51852 4.04251 9.68616C4.02606 9.93759 3.81362 10.2093 3.69224 10.1341C3.58419 10.0673 3.60084 9.96043 3.71925 9.96043C3.7751 9.96043 3.8208 9.92993 3.8208 9.89264C3.8208 9.85536 3.78769 9.82485 3.74714 9.82485C3.67531 9.82485 4.17967 9.06122 4.45229 8.75719C4.58085 8.61388 4.70087 8.55823 4.70087 8.64195ZM6.63468 9.4788C6.58654 9.55675 6.75606 9.62149 7.00817 9.62149C7.22061 9.62149 7.27355 9.52652 7.09861 9.45927C6.94 9.39833 6.67753 9.40938 6.63468 9.4788ZM30.477 10.232C30.5421 10.2323 30.6433 10.3161 30.7017 10.4184C30.7968 10.585 30.9091 10.6658 31.2386 10.8043C31.2945 10.8278 31.4011 10.8843 31.4756 10.9299C31.9174 11.2004 31.9857 11.2735 32.0247 11.5174C32.0482 11.6652 32.1541 11.8675 32.2795 12.0047C32.3975 12.1336 32.4994 12.31 32.5059 12.3965C32.5333 12.7602 33.0665 13.0564 33.0665 12.708C33.0665 12.5875 33.0948 12.5515 33.1675 12.5794C33.3492 12.6493 33.3761 12.3928 33.2018 12.2515C33.1149 12.1811 33.003 12.0447 32.9531 11.9483C32.8723 11.7925 32.8738 11.7828 32.9665 11.8599C33.0529 11.9316 33.0865 11.9248 33.1627 11.8204C33.2414 11.7126 33.2803 11.7061 33.4314 11.775C33.5286 11.8193 33.6081 11.8995 33.6081 11.9531C33.6081 12.0067 33.6462 12.0646 33.6927 12.0817C33.7572 12.1053 33.7586 12.1326 33.6984 12.1968C33.6375 12.2617 33.6837 12.3628 33.9015 12.6409C34.0566 12.8389 34.212 13.0031 34.2469 13.0059C34.2817 13.0087 34.3806 13.0771 34.4666 13.1581C34.6048 13.2882 34.6423 13.2949 34.7886 13.2165C34.937 13.1369 34.976 13.1462 35.1664 13.3066C35.3899 13.4949 35.5654 13.532 35.6819 13.4154C35.8884 13.2086 36.1631 13.7736 36.0382 14.1485C36.0044 14.2498 35.9453 14.4624 35.9068 14.6209C35.8324 14.9275 35.7842 14.9556 35.5499 14.8291C35.4686 14.7852 35.2327 14.7451 35.0257 14.7399C34.7587 14.7332 34.5153 14.6677 34.1888 14.5147C33.9354 14.396 33.6733 14.2989 33.6061 14.2989C33.5389 14.2989 33.4247 14.2175 33.3524 14.1181C33.2471 13.9733 33.1702 13.9392 32.9665 13.9469C32.6362 13.9593 32.5249 14.0591 32.5249 14.3432C32.5249 14.4833 32.486 14.5892 32.426 14.6123C32.3096 14.657 31.7658 14.4061 31.2304 14.0606C30.965 13.8893 30.731 13.7989 30.4568 13.7616C29.9371 13.691 29.718 13.4645 29.785 13.0674C29.8125 12.9041 29.8 12.7671 29.7523 12.7095C29.6992 12.6455 29.6972 12.6025 29.7459 12.5723C29.8553 12.5047 29.8326 12.3125 29.7203 12.3557C29.6672 12.3761 29.5898 12.3518 29.5484 12.3018C29.4922 12.2341 29.3144 12.2176 28.8495 12.2373C28.5066 12.2519 28.1651 12.2604 28.0906 12.2564C27.2112 12.2083 26.7763 12.254 26.1692 12.4582C25.4241 12.709 25.2818 12.7166 24.875 12.5272L24.5703 12.3854L24.8073 12.2966C24.9376 12.2477 25.1925 12.2054 25.3738 12.2026C25.6436 12.1984 25.7479 12.1583 25.9492 11.9814C26.35 11.6293 26.4586 11.4639 26.364 11.3497C26.2457 11.2069 26.6223 10.8417 26.8878 10.8417C27.1581 10.8417 27.3425 10.6942 27.2957 10.5152C27.2468 10.328 27.4538 10.2574 27.7237 10.3694C27.9424 10.4602 28.2201 10.4246 28.5623 10.262C28.7628 10.1668 28.8118 10.1662 29.0293 10.2573C29.163 10.3133 29.3286 10.4516 29.3974 10.5648C29.5382 10.7967 29.8841 11.0521 30.2126 11.1668C30.6838 11.3312 31.419 12.1297 31.0992 12.1297C31.0598 12.1297 31.0464 12.1602 31.0694 12.1974C31.1487 12.326 31.3525 12.2648 31.4328 12.0882C31.4907 11.9609 31.4929 11.8863 31.4404 11.8231C31.335 11.6959 31.4734 11.6311 31.6492 11.7253C31.7276 11.7673 31.8051 11.7883 31.8214 11.772C31.9001 11.6932 31.7403 11.5194 31.4378 11.3545C31.2538 11.2542 31.1032 11.1435 31.1032 11.1086C31.1032 11.0737 31.0329 11.045 30.9469 11.045C30.7587 11.045 30.6331 10.9494 30.4288 10.6506C30.3442 10.5268 30.2024 10.3979 30.1136 10.3641C30.0202 10.3285 29.9523 10.2474 29.9523 10.1711C29.9523 9.99053 30.088 9.9607 30.2359 10.1088C30.3033 10.1763 30.4119 10.2318 30.477 10.232ZM28.9665 10.5313C28.8602 10.6092 28.8528 10.65 28.9189 10.7952C28.9816 10.9331 28.9776 10.9831 28.8984 11.0489C28.8241 11.1107 28.8185 11.1534 28.8759 11.2227C28.9178 11.2732 28.9344 11.3606 28.9127 11.417C28.8182 11.6637 29.0749 11.8287 29.2618 11.6416C29.3763 11.527 29.3628 11.2101 29.2382 11.0852C29.1637 11.0107 29.1459 10.9131 29.1765 10.7493C29.2266 10.4825 29.1465 10.3995 28.9665 10.5313ZM34.7946 10.7474C34.8861 10.8074 34.9458 10.8809 34.9274 10.9107C34.909 10.9405 34.9896 11.0455 35.1064 11.1439C35.2696 11.2814 35.3633 11.3131 35.5102 11.2809C35.6726 11.2452 35.7504 11.2857 36.0245 11.5486C36.2021 11.7191 36.3693 11.8585 36.396 11.8585C36.4844 11.8585 36.8023 12.3259 36.7602 12.3941C36.6971 12.4963 36.1669 12.3134 35.8712 12.0875C35.6377 11.9092 35.5633 11.8913 35.0067 11.8795C34.4519 11.8677 34.3823 11.851 34.2239 11.6925C34.0747 11.5431 34.0619 11.4995 34.1337 11.3843C34.1797 11.3106 34.2173 11.2013 34.2173 11.1414C34.2173 11.0247 34.487 10.6483 34.5751 10.642C34.6044 10.64 34.7031 10.6874 34.7946 10.7474ZM35.8931 11.1522C35.8772 11.1681 35.7601 11.1441 35.633 11.0987L35.4021 11.016L35.6052 10.9768C35.7394 10.9508 35.8275 10.9689 35.8653 11.0303C35.8966 11.0812 35.9091 11.1361 35.8931 11.1522ZM27.156 11.2917C27.0928 11.355 27.1691 11.4518 27.2823 11.4518C27.3359 11.4518 27.3798 11.406 27.3798 11.3501C27.3798 11.248 27.2369 11.2107 27.156 11.2917ZM3.24468 11.5884C3.22126 11.6263 3.17699 11.6418 3.14625 11.6227C3.11545 11.6037 3.04294 11.7023 2.98513 11.842L2.87999 12.0958L2.87654 11.8077C2.87316 11.5307 2.88108 11.5196 3.08011 11.5196C3.20312 11.5196 3.26994 11.5475 3.24468 11.5884ZM37.9243 12.7788C37.8914 12.8118 37.4658 11.9811 37.4702 11.8924C37.472 11.8551 37.5806 12.0336 37.7115 12.2891C37.8425 12.5445 37.9382 12.7649 37.9243 12.7788ZM30.0877 12.1221C30.0877 12.1654 30.1563 12.2288 30.2401 12.2629C30.3239 12.297 30.4838 12.3876 30.5955 12.4641C30.8814 12.66 30.9543 12.6403 30.9543 12.3669C30.9543 12.1856 30.9262 12.1297 30.8351 12.1297C30.7695 12.1297 30.5746 12.1103 30.4019 12.0865C30.1839 12.0567 30.0877 12.0675 30.0877 12.1221ZM38.4146 13.9507C38.4146 13.9703 38.3385 13.8829 38.2454 13.7566C38.1488 13.6255 38.0774 13.438 38.079 13.3198C38.0815 13.139 38.1031 13.1638 38.2482 13.5139C38.3398 13.7346 38.4146 13.9312 38.4146 13.9507ZM33.5065 13.3862C33.7411 13.4938 33.9465 13.5121 33.9465 13.4256C33.9465 13.3527 33.703 13.2823 33.4727 13.2885C33.3072 13.293 33.308 13.2951 33.5065 13.3862ZM35.4867 13.5999C35.3074 13.6469 35.3418 13.8244 35.5302 13.8244C35.6642 13.8244 35.7744 13.7148 35.7744 13.5816C35.7744 13.5484 35.6542 13.5561 35.4867 13.5999ZM38.7233 16.0779C38.7928 16.2366 38.9498 16.5005 39.0722 16.6643C39.2928 16.9597 39.3642 17.2984 39.224 17.3851C39.1007 17.4615 38.9562 17.2732 38.9562 17.036C38.9562 16.9101 38.928 16.8071 38.8935 16.8071C38.8116 16.8071 38.5059 16.1616 38.4448 15.8594C38.4037 15.6562 38.4109 15.6349 38.4969 15.7064C38.5519 15.7521 38.6537 15.9193 38.7233 16.0779ZM36.4006 16.2696C36.5403 16.5089 36.6545 16.7572 36.6545 16.8213C36.6545 16.8854 36.7084 16.9668 36.7744 17.0021C36.9016 17.0703 37.1292 17.6251 37.1287 17.8656C37.1285 17.9444 37.1904 18.0879 37.2662 18.1844C37.342 18.2809 37.4386 18.4604 37.4808 18.5833C37.523 18.7062 37.6322 18.9207 37.7235 19.0598C37.8148 19.199 37.8745 19.3702 37.8562 19.4402C37.8379 19.5103 37.8505 19.7436 37.8842 19.9588C37.9179 20.174 37.9299 20.3655 37.911 20.3845C37.892 20.4035 37.8169 20.2851 37.7442 20.1214C37.6714 19.9576 37.537 19.7551 37.4454 19.6713C37.3539 19.5875 37.2588 19.4045 37.2342 19.2646C37.2096 19.1247 37.1035 18.8424 36.9984 18.6373C36.8932 18.4323 36.7883 18.1171 36.7652 17.937C36.7421 17.7568 36.6621 17.5315 36.5873 17.4363C36.5126 17.3412 36.4514 17.2238 36.4514 17.1756C36.4514 17.1273 36.3186 16.8012 36.1562 16.451C35.8807 15.8566 35.8706 15.815 36.0039 15.8243C36.1033 15.8313 36.2241 15.9669 36.4006 16.2696ZM2.70377 16.3325C2.68076 16.3698 2.70946 16.4003 2.76748 16.4003C2.8255 16.4003 2.87302 16.3698 2.87302 16.3325C2.87302 16.2953 2.84438 16.2648 2.80932 16.2648C2.77425 16.2648 2.72679 16.2953 2.70377 16.3325ZM2.73762 16.9087C2.73762 16.9647 2.76809 17.0104 2.80532 17.0104C2.84256 17.0104 2.87302 16.9647 2.87302 16.9087C2.87302 16.8528 2.84256 16.8071 2.80532 16.8071C2.76809 16.8071 2.73762 16.8528 2.73762 16.9087ZM1.80163 17.574C1.62785 17.7593 1.58885 18.0306 1.756 17.8917C1.82613 17.8334 1.85755 17.8308 1.85755 17.8834C1.85755 17.9252 1.89153 17.9595 1.93316 17.9595C1.97588 17.9595 1.99308 17.8994 1.97263 17.8211C1.94237 17.7053 1.96045 17.6897 2.08318 17.7255C2.44104 17.8297 2.6113 17.9384 2.68814 18.112C2.75922 18.2726 2.80999 18.2984 3.05479 18.2984C3.21104 18.2984 3.35794 18.2676 3.38116 18.23C3.46558 18.0931 3.33513 17.8859 3.13989 17.8468C3.03204 17.8252 2.90741 17.7637 2.863 17.7101C2.75245 17.5768 2.35418 17.4172 2.13186 17.4172C2.02808 17.4172 1.8851 17.4851 1.80163 17.574ZM3.52746 17.7335C3.44954 17.8115 3.47811 17.8917 3.58385 17.8917C3.6397 17.8917 3.6854 17.8459 3.6854 17.79C3.6854 17.6841 3.60531 17.6555 3.52746 17.7335ZM3.65284 18.3042C3.68757 18.4627 3.66996 18.4946 3.53728 18.5134C3.45123 18.5257 3.38076 18.5814 3.38076 18.6373C3.38076 18.7122 3.44114 18.733 3.60998 18.716C3.73604 18.7034 3.85972 18.7263 3.88477 18.767C3.91598 18.8174 4.01942 18.7978 4.21081 18.7052C4.36509 18.6306 4.54544 18.5696 4.61165 18.5696C4.70683 18.5696 4.68605 18.5234 4.51294 18.3501C4.32677 18.1637 4.24235 18.1296 3.95281 18.1239C3.61466 18.1173 3.61215 18.1188 3.65284 18.3042ZM4.93701 18.5031C4.86457 18.6204 5.00613 18.7249 5.16793 18.6734C5.30874 18.6287 5.36791 18.5018 5.24801 18.5018C5.21382 18.5018 5.14071 18.4844 5.0856 18.4633C5.0305 18.442 4.96361 18.46 4.93701 18.5031ZM2.66993 18.7729C2.66993 18.9159 2.77662 18.9461 2.93246 18.8472C3.0535 18.7705 2.9703 18.6373 2.80133 18.6373C2.71508 18.6373 2.66993 18.6839 2.66993 18.7729ZM0.504392 19.9283C0.553473 20.1109 0.633492 20.2278 0.743976 20.2782C0.835165 20.3198 0.909769 20.3794 0.909769 20.4108C0.909769 20.442 0.954856 20.4676 1.00996 20.4676C1.13344 20.4676 1.38366 20.9424 1.38366 21.1767C1.38366 21.2754 1.42238 21.3489 1.47431 21.3489C1.5242 21.3489 1.60009 21.426 1.64301 21.5202C1.68586 21.6145 1.77455 21.7116 1.84001 21.7361C1.90554 21.7606 1.9989 21.8359 2.04757 21.9037C2.17539 22.0816 2.33143 22.0583 2.33143 21.8613C2.33143 21.7703 2.3619 21.677 2.39913 21.6539C2.43677 21.6306 2.46703 21.6815 2.46724 21.7686C2.46751 21.8546 2.51097 22.0083 2.56391 22.1099C2.70344 22.3776 2.7167 23.0433 2.58659 23.2492C2.5285 23.3412 2.46047 23.485 2.43549 23.5689C2.41044 23.6529 2.36163 23.7215 2.3269 23.7215C2.22224 23.7215 2.24965 24.7823 2.35702 24.8898C2.4363 24.9692 2.4363 25.0025 2.35702 25.111C2.22061 25.2978 2.24282 25.5689 2.41606 25.8315C2.67169 26.2188 2.85054 26.5845 2.97545 26.9753C3.04105 27.1804 3.1514 27.4614 3.22079 27.5996C3.29018 27.738 3.34691 27.9074 3.34691 27.9762C3.34691 28.1453 3.95098 28.7628 4.37789 29.0301C4.75476 29.2661 4.86883 29.6336 5.04431 31.1775C5.11844 31.8294 5.22384 32.5138 5.27848 32.698C5.38388 33.0534 5.40033 33.4354 5.31916 33.642C5.27706 33.7492 5.22594 33.7152 4.96239 33.4048C2.64813 30.6781 1.14292 27.3256 0.533366 23.54C0.427486 22.8823 0.308676 19.6542 0.390455 19.6542C0.412525 19.6542 0.46384 19.7775 0.504392 19.9283ZM39.3935 20.4722C39.3689 20.5119 39.3651 20.5607 39.385 20.5806C39.4335 20.6292 39.5655 20.5436 39.5655 20.4636C39.5655 20.377 39.4487 20.3828 39.3935 20.4722ZM6.25794 21.0777C6.25794 21.2314 6.32814 21.2515 6.44749 21.132C6.56684 21.0124 6.5468 20.9421 6.39333 20.9421C6.30309 20.9421 6.25794 20.9874 6.25794 21.0777ZM3.95619 21.4167C3.95619 21.4912 3.94448 21.5522 3.93026 21.5522C3.91598 21.5522 3.88836 21.4912 3.86886 21.4167C3.84943 21.3421 3.86108 21.2811 3.89486 21.2811C3.92857 21.2811 3.95619 21.3421 3.95619 21.4167ZM9.84595 25.2791C9.84595 25.3069 9.76979 25.315 9.6767 25.2972C9.58362 25.2794 9.50746 25.2421 9.50746 25.2143C9.50746 25.1865 9.58362 25.1784 9.6767 25.1962C9.76979 25.214 9.84595 25.2513 9.84595 25.2791Z" fill="#266294"/>
</svg>
