<svg width="24" height="24" viewBox="0 0 24 24" fill="none" xmlns="http://www.w3.org/2000/svg">
<rect width="24" height="24" fill="#1E1E1E"/>
<g id="Tablet___834px___Hero_page_1" clip-path="url(#clip0_0_1)">
<rect width="834" height="4783" transform="translate(-416 -31)" fill="#EBF8FF"/>
<g id="Header_tablet">
<rect width="834" height="86" transform="translate(-416 -31)" fill="#CFE7F5"/>
<g id="Navigation">
<g id="user">
<g id="user_2">
<path id="Vector" d="M20 21V19C20 17.9391 19.5786 16.9217 18.8284 16.1716C18.0783 15.4214 17.0609 15 16 15H8C6.93913 15 5.92172 15.4214 5.17157 16.1716C4.42143 16.9217 4 17.9391 4 19V21" stroke="#266294" stroke-width="2" stroke-linecap="round" stroke-linejoin="round"/>
<path id="Vector_2" d="M12 11C14.2091 11 16 9.20914 16 7C16 4.79086 14.2091 3 12 3C9.79086 3 8 4.79086 8 7C8 9.20914 9.79086 11 12 11Z" stroke="#266294" stroke-width="2" stroke-linecap="round" stroke-linejoin="round"/>
</g>
</g>
</g>
</g>
</g>
<defs>
<clipPath id="clip0_0_1">
<rect width="834" height="4783" fill="white" transform="translate(-416 -31)"/>
</clipPath>
</defs>
</svg>
