<svg width="20" height="20" viewBox="0 0 20 20" fill="none" xmlns="http://www.w3.org/2000/svg">
<path d="M18.7832 5.35016C18.6843 4.95467 18.4826 4.59231 18.1988 4.29967C17.9149 4.00703 17.5589 3.79448 17.1666 3.6835C15.7332 3.3335 9.99991 3.3335 9.99991 3.3335C9.99991 3.3335 4.26657 3.3335 2.83324 3.71683C2.44095 3.82782 2.08489 4.04036 1.80103 4.333C1.51717 4.62564 1.31556 4.988 1.21657 5.3835C0.954252 6.83813 0.825937 8.31375 0.83324 9.79183C0.823889 11.281 0.952213 12.7679 1.21657 14.2335C1.32571 14.6167 1.53183 14.9653 1.81503 15.2456C2.09822 15.5258 2.44892 15.7283 2.83324 15.8335C4.26657 16.2168 9.99991 16.2168 9.99991 16.2168C9.99991 16.2168 15.7332 16.2168 17.1666 15.8335C17.5589 15.7225 17.9149 15.51 18.1988 15.2173C18.4826 14.9247 18.6843 14.5623 18.7832 14.1668C19.0435 12.7232 19.1718 11.2588 19.1666 9.79183C19.1759 8.30263 19.0476 6.81574 18.7832 5.35016Z" stroke="#266294" stroke-linecap="round" stroke-linejoin="round"/>
<path d="M8.125 12.5169L12.9167 9.7919L8.125 7.06689V12.5169Z" stroke="#266294" stroke-linecap="round" stroke-linejoin="round"/>
</svg>
